<svg width="24" height="24" viewBox="0 0 24 24" fill="none" xmlns="http://www.w3.org/2000/svg">
<path fill-rule="evenodd" clip-rule="evenodd" d="M8.97939 6.14462C7.65744 5.55712 5.99674 5.85832 5.00235 7.13999L4.69299 7.53871C3.36394 9.25171 3.55584 11.6945 5.13607 13.179L12.0007 19.6276L18.8654 13.179C20.4456 11.6945 20.6375 9.25171 19.3084 7.53871L18.9991 7.13998C17.8202 5.62047 15.7048 5.47824 14.3258 6.56431L13.0883 4.99311C15.2848 3.26317 18.6778 3.46325 20.5793 5.91399L20.8886 6.31271C22.85 8.84077 22.5668 12.4459 20.2347 14.6367L13.2821 21.1679C13.2755 21.1741 13.2688 21.1804 13.2621 21.1868C13.1605 21.2822 13.0381 21.3974 12.9206 21.4879C12.7817 21.5948 12.5733 21.7299 12.2896 21.7856C12.0988 21.823 11.9026 21.823 11.7119 21.7856C11.4281 21.7299 11.2197 21.5948 11.0809 21.4879C10.9633 21.3973 10.8409 21.2822 10.7393 21.1868C10.7326 21.1804 10.7259 21.1741 10.7193 21.1679L3.76672 14.6367C1.4346 12.4459 1.15139 8.84078 3.11282 6.31272L3.90291 6.92571L3.11282 6.31272L3.42218 5.91399C5.3774 3.39393 8.90966 3.25276 11.0984 5.14611L11.8213 5.77142L11.2293 6.5218L10.1936 7.83457C9.84702 8.27389 9.65449 8.52168 9.54438 8.71029C9.54294 8.71275 9.54155 8.71516 9.54018 8.71752C9.5423 8.71925 9.54446 8.72101 9.54667 8.72279C9.7165 8.86011 9.98437 9.02355 10.4642 9.31145L11.7166 10.0629C11.7327 10.0726 11.7488 10.0822 11.7648 10.0918C12.1451 10.3199 12.5128 10.5404 12.7898 10.7627C13.101 11.0126 13.4214 11.3591 13.5382 11.8787C13.6551 12.3983 13.5139 12.8486 13.3395 13.2077C13.1844 13.5271 12.9465 13.8838 12.7005 14.2528C12.6901 14.2683 12.6797 14.2839 12.6693 14.2995L11.8328 15.5543L10.1687 14.4449L11.0052 13.1901C11.2944 12.7564 11.4524 12.5153 11.5404 12.3341C11.5415 12.3318 11.5427 12.3295 11.5437 12.3272C11.5418 12.3256 11.5398 12.324 11.5378 12.3224C11.3807 12.1963 11.1347 12.0461 10.6877 11.7779L9.43521 11.0264C9.41829 11.0163 9.40139 11.0062 9.38453 10.996C8.97447 10.7501 8.58172 10.5146 8.28917 10.278C7.96245 10.0138 7.62433 9.64315 7.52247 9.0872C7.42061 8.53126 7.60535 8.06477 7.81718 7.70193C8.00687 7.37702 8.2906 7.01752 8.58683 6.64218C8.59902 6.62675 8.61122 6.61129 8.62344 6.5958L8.97939 6.14462ZM9.45506 8.63816C9.45509 8.63817 9.45551 8.63868 9.45624 8.63969C9.4554 8.63867 9.45504 8.63816 9.45506 8.63816ZM9.48928 8.82005C9.48896 8.82126 9.48875 8.82189 9.48873 8.8219L9.48928 8.82005Z" fill="#7A7EA8"/>
</svg>
