<svg width="24" height="24" viewBox="0 0 24 24" fill="none" xmlns="http://www.w3.org/2000/svg">
<path d="M8 17H7C5.11438 17 4.17157 17 3.58579 16.4142C3 15.8284 3 14.8856 3 13V8C3 6.11438 3 5.17157 3.58579 4.58579C4.17157 4 5.11438 4 7 4H17C18.8856 4 19.8284 4 20.4142 4.58579C21 5.17157 21 6.11438 21 8V13C21 14.8856 21 15.8284 20.4142 16.4142C19.8284 17 18.8856 17 17 17H16M12 20V13M12 13L14 15M12 13L10 15" stroke="#7A7EA8" stroke-width="2" stroke-linecap="round"/>
<path d="M7 13H7.01" stroke="#7A7EA8" stroke-width="2" stroke-linecap="round"/>
<path d="M4 9H21" stroke="#7A7EA8" stroke-width="2" stroke-linecap="round"/>
</svg>
