<svg width="24" height="24" viewBox="0 0 24 24" fill="none" xmlns="http://www.w3.org/2000/svg">
<path d="M12.3978 20.9163L11.9411 20.0267L11.9411 20.0267L12.3978 20.9163ZM11.6013 20.9163L11.1447 21.806L11.1447 21.806L11.6013 20.9163ZM18.9659 10.8687C18.9659 13.3884 17.6686 15.4538 16.08 17.039C14.493 18.6226 12.7027 19.6358 11.9411 20.0267L12.8544 21.806C13.7049 21.3694 15.6987 20.2449 17.4927 18.4547C19.2852 16.666 20.9659 14.1213 20.9659 10.8687H18.9659ZM11.9996 3.90234C15.847 3.90234 18.9659 7.02129 18.9659 10.8687H20.9659C20.9659 5.91672 16.9515 1.90234 11.9996 1.90234V3.90234ZM5.0332 10.8687C5.0332 7.02129 8.15215 3.90234 11.9996 3.90234V1.90234C7.04758 1.90234 3.0332 5.91672 3.0332 10.8687H5.0332ZM12.058 20.0267C11.2964 19.6358 9.50613 18.6226 7.91909 17.039C6.33055 15.4538 5.0332 13.3884 5.0332 10.8687H3.0332C3.0332 14.1213 4.71388 16.666 6.50639 18.4547C8.3004 20.2449 10.2942 21.3694 11.1447 21.806L12.058 20.0267ZM11.9411 20.0267C11.9535 20.0203 11.974 20.0139 11.9996 20.0139C12.0251 20.0139 12.0457 20.0203 12.058 20.0267L11.1447 21.806C11.6848 22.0832 12.3144 22.0832 12.8544 21.806L11.9411 20.0267ZM14.4142 10.8687C14.4142 12.202 13.3334 13.2829 12.0001 13.2829V15.2829C14.438 15.2829 16.4142 13.3066 16.4142 10.8687H14.4142ZM12.0001 8.45459C13.3334 8.45459 14.4142 9.53544 14.4142 10.8687H16.4142C16.4142 8.43087 14.438 6.45459 12.0001 6.45459V8.45459ZM9.58594 10.8687C9.58594 9.53544 10.6668 8.45459 12.0001 8.45459V6.45459C9.56222 6.45459 7.58594 8.43087 7.58594 10.8687H9.58594ZM12.0001 13.2829C10.6668 13.2829 9.58594 12.202 9.58594 10.8687H7.58594C7.58594 13.3066 9.56222 15.2829 12.0001 15.2829V13.2829Z" fill="#7A7EA8"/>
</svg>
