<svg width="24" height="24" viewBox="0 0 24 24" fill="none" xmlns="http://www.w3.org/2000/svg">
<path fill-rule="evenodd" clip-rule="evenodd" d="M17.298 6.68266C16.919 6.75007 16.3818 6.92637 15.5217 7.21309L9.03067 9.37676C8.20327 9.65255 7.61951 9.84747 7.19961 10.0113C6.99194 10.0923 6.8473 10.1571 6.74673 10.2101C6.66155 10.2551 6.63092 10.2798 6.6291 10.2811C6.22324 10.674 6.22324 11.325 6.6291 11.7179C6.63092 11.7192 6.66155 11.744 6.74673 11.7889C6.8473 11.8419 6.99194 11.9067 7.19961 11.9877C7.61951 12.1515 8.20327 12.3464 9.03067 12.6222C9.04966 12.6286 9.0685 12.6348 9.08718 12.6411C9.36055 12.732 9.60057 12.8118 9.82153 12.9287C10.354 13.2103 10.7894 13.6456 11.071 14.1781C11.1878 14.3991 11.2677 14.6391 11.3586 14.9125C11.3648 14.9312 11.3711 14.95 11.3774 14.969C11.6532 15.7964 11.8481 16.3801 12.0119 16.8C12.093 17.0077 12.1577 17.1523 12.2108 17.2529C12.2557 17.3381 12.2805 17.3687 12.2817 17.3706C12.6746 17.7764 13.3257 17.7764 13.7186 17.3706C13.7198 17.3687 13.7446 17.3381 13.7895 17.2529C13.8426 17.1523 13.9073 17.0077 13.9884 16.8C14.1522 16.3801 14.3471 15.7964 14.6229 14.969L16.7866 8.47801C17.0733 7.61783 17.2496 7.08061 17.317 6.7017C17.3184 6.69382 17.3197 6.68614 17.321 6.67867C17.3135 6.67993 17.3058 6.68126 17.298 6.68266ZM17.5569 6.65955C17.5567 6.65973 17.5534 6.65946 17.5477 6.65819C17.5542 6.65873 17.5571 6.65937 17.5569 6.65955ZM17.3415 6.45196C17.3402 6.44622 17.3399 6.44294 17.3401 6.44273C17.3403 6.44253 17.3409 6.44539 17.3415 6.45196ZM16.9477 4.71357C17.4987 4.61556 18.2532 4.58637 18.8332 5.16643C19.4133 5.74648 19.3841 6.50099 19.2861 7.05199C19.1898 7.59342 18.9633 8.27254 18.7078 9.03882L18.6839 9.11046L16.5203 15.6014L16.5109 15.6297C16.2466 16.4225 16.0359 17.0544 15.8516 17.527C15.6782 17.9712 15.4728 18.4316 15.1633 18.7536C13.9828 19.9821 12.0175 19.9821 10.837 18.7536C10.5275 18.4316 10.3221 17.9712 10.1487 17.527C9.96438 17.0545 9.75374 16.4226 9.48948 15.6298L9.48004 15.6014C9.35964 15.2402 9.33252 15.169 9.303 15.1131C9.20914 14.9356 9.06401 14.7905 8.88652 14.6966C8.8307 14.6671 8.75941 14.64 8.39821 14.5196L8.36988 14.5102C7.5771 14.2459 6.94518 14.0353 6.47264 13.8509C6.02846 13.6776 5.56809 13.4721 5.24604 13.1626C4.0176 11.9822 4.0176 10.0168 5.24604 8.83637C5.56809 8.52689 6.02846 8.32141 6.47264 8.1481C6.9452 7.96372 7.57714 7.75308 8.36997 7.4888L8.39821 7.47939L14.8892 5.31573C14.9131 5.30774 14.937 5.29978 14.9608 5.29185C15.7271 5.03634 16.4062 4.80989 16.9477 4.71357Z" fill="#7A7EA8"/>
</svg>
